{
    "asset" : {
        "generator" : "Khronos glTF Blender I/O v3.4.50",
        "version" : "2.0"
    },
    "scene" : 0,
    "scenes" : [
        {
            "name" : "Scene",
            "nodes" : [
                0,
                1,
                2,
                3,
                4,
                5,
                6,
                7,
                8,
                9
            ]
        }
    ],
    "nodes" : [
        {
            "mesh" : 0,
            "name" : "Roundcube",
            "scale" : [
                1.1875873804092407,
                1.1875873804092407,
                1.1875873804092407
            ],
            "translation" : [
                0,
                1.436744213104248,
                -0.0535922646522522
            ]
        },
        {
            "mesh" : 1,
            "name" : "Roundcube.001",
            "scale" : [
                1.1875873804092407,
                1.1875873804092407,
                1.1875873804092407
            ],
            "translation" : [
                0,
                -0.18105864524841309,
                -0.05359211564064026
            ]
        },
        {
            "mesh" : 2,
            "name" : "Cube",
            "scale" : [
                1.1875873804092407,
                1.1875873804092407,
                1.1875873804092407
            ],
            "translation" : [
                0,
                2.3146142959594727,
                1.642830491065979
            ]
        },
        {
            "mesh" : 3,
            "name" : "Roundcube.002",
            "scale" : [
                1.1875873804092407,
                1.1875873804092407,
                1.1875873804092407
            ],
            "translation" : [
                0,
                -0.18105864524841309,
                -0.0535922646522522
            ]
        },
        {
            "mesh" : 4,
            "name" : "Roundcube.003",
            "scale" : [
                1.1875873804092407,
                1.1875873804092407,
                1.1875873804092407
            ],
            "translation" : [
                0,
                1.436744213104248,
                -0.0535922646522522
            ]
        },
        {
            "mesh" : 5,
            "name" : "Roundcube.004",
            "scale" : [
                1.1875873804092407,
                1.1875873804092407,
                1.1875873804092407
            ],
            "translation" : [
                0,
                1.436744213104248,
                -0.0535922646522522
            ]
        },
        {
            "mesh" : 6,
            "name" : "Roundcube.005",
            "scale" : [
                1.1875873804092407,
                1.1875873804092407,
                1.1875873804092407
            ],
            "translation" : [
                0,
                -0.18105864524841309,
                -0.05359211564064026
            ]
        },
        {
            "mesh" : 7,
            "name" : "Cube.001",
            "scale" : [
                1.1875873804092407,
                1.1875873804092407,
                1.1875873804092407
            ],
            "translation" : [
                0,
                2.3146142959594727,
                1.642830491065979
            ]
        },
        {
            "mesh" : 8,
            "name" : "Roundcube.006",
            "scale" : [
                1.1875873804092407,
                1.1875873804092407,
                1.1875873804092407
            ],
            "translation" : [
                0,
                -0.18105864524841309,
                -0.0535922646522522
            ]
        },
        {
            "mesh" : 9,
            "name" : "Roundcube.007",
            "scale" : [
                1.1875873804092407,
                1.1875873804092407,
                1.1875873804092407
            ],
            "translation" : [
                0,
                1.436744213104248,
                -0.0535922646522522
            ]
        }
    ],
    "materials" : [
        {
            "doubleSided" : true,
            "name" : "Material.004",
            "pbrMetallicRoughness" : {
                "baseColorTexture" : {
                    "index" : 0
                },
                "metallicFactor" : 0,
                "roughnessFactor" : 0.5
            }
        }
    ],
    "meshes" : [
        {
            "name" : "Roundcube",
            "primitives" : [
                {
                    "attributes" : {
                        "POSITION" : 0,
                        "TEXCOORD_0" : 1,
                        "NORMAL" : 2
                    },
                    "indices" : 3,
                    "material" : 0
                }
            ]
        },
        {
            "name" : "Roundcube.005",
            "primitives" : [
                {
                    "attributes" : {
                        "POSITION" : 4,
                        "TEXCOORD_0" : 5,
                        "NORMAL" : 6
                    },
                    "indices" : 7,
                    "material" : 0
                }
            ]
        },
        {
            "name" : "Cube.001",
            "primitives" : [
                {
                    "attributes" : {
                        "POSITION" : 8,
                        "TEXCOORD_0" : 9,
                        "NORMAL" : 10
                    },
                    "indices" : 11,
                    "material" : 0
                }
            ]
        },
        {
            "name" : "Roundcube.006",
            "primitives" : [
                {
                    "attributes" : {
                        "POSITION" : 12,
                        "TEXCOORD_0" : 13,
                        "NORMAL" : 14
                    },
                    "indices" : 15,
                    "material" : 0
                }
            ]
        },
        {
            "name" : "Roundcube.003",
            "primitives" : [
                {
                    "attributes" : {
                        "POSITION" : 16,
                        "TEXCOORD_0" : 17,
                        "NORMAL" : 18
                    },
                    "indices" : 19,
                    "material" : 0
                }
            ]
        },
        {
            "name" : "Roundcube.001",
            "primitives" : [
                {
                    "attributes" : {
                        "POSITION" : 20,
                        "TEXCOORD_0" : 21,
                        "NORMAL" : 22
                    },
                    "indices" : 3,
                    "material" : 0
                }
            ]
        },
        {
            "name" : "Roundcube.002",
            "primitives" : [
                {
                    "attributes" : {
                        "POSITION" : 23,
                        "TEXCOORD_0" : 24,
                        "NORMAL" : 25
                    },
                    "indices" : 7,
                    "material" : 0
                }
            ]
        },
        {
            "name" : "Cube.002",
            "primitives" : [
                {
                    "attributes" : {
                        "POSITION" : 26,
                        "TEXCOORD_0" : 27,
                        "NORMAL" : 28
                    },
                    "indices" : 11,
                    "material" : 0
                }
            ]
        },
        {
            "name" : "Roundcube.004",
            "primitives" : [
                {
                    "attributes" : {
                        "POSITION" : 29,
                        "TEXCOORD_0" : 30,
                        "NORMAL" : 31
                    },
                    "indices" : 15,
                    "material" : 0
                }
            ]
        },
        {
            "name" : "Roundcube.007",
            "primitives" : [
                {
                    "attributes" : {
                        "POSITION" : 32,
                        "TEXCOORD_0" : 33,
                        "NORMAL" : 34
                    },
                    "indices" : 19,
                    "material" : 0
                }
            ]
        }
    ],
    "textures" : [
        {
            "sampler" : 0,
            "source" : 0
        }
    ],
    "images" : [
        {
            "bufferView" : 4,
            "mimeType" : "image/png",
            "name" : "Material_BaseColor"
        }
    ],
    "accessors" : [
        {
            "bufferView" : 0,
            "componentType" : 5126,
            "count" : 1658,
            "max" : [
                1.3748537302017212,
                2.1137688159942627,
                1.3748537302017212
            ],
            "min" : [
                -1.3748537302017212,
                -1.3596961498260498,
                -1.3748537302017212
            ],
            "type" : "VEC3"
        },
        {
            "bufferView" : 1,
            "componentType" : 5126,
            "count" : 1658,
            "type" : "VEC2"
        },
        {
            "bufferView" : 2,
            "componentType" : 5126,
            "count" : 1658,
            "type" : "VEC3"
        },
        {
            "bufferView" : 3,
            "componentType" : 5123,
            "count" : 9216,
            "type" : "SCALAR"
        },
        {
            "bufferView" : 5,
            "componentType" : 5126,
            "count" : 2408,
            "max" : [
                1.7029842138290405,
                1.946226716041565,
                0.8139830827713013
            ],
            "min" : [
                -1.7029842138290405,
                0.0027043786831200123,
                -0.3364943265914917
            ],
            "type" : "VEC3"
        },
        {
            "bufferView" : 6,
            "componentType" : 5126,
            "count" : 2408,
            "type" : "VEC2"
        },
        {
            "bufferView" : 7,
            "componentType" : 5126,
            "count" : 2408,
            "type" : "VEC3"
        },
        {
            "bufferView" : 8,
            "componentType" : 5123,
            "count" : 13440,
            "type" : "SCALAR"
        },
        {
            "bufferView" : 9,
            "componentType" : 5126,
            "count" : 216,
            "max" : [
                0.23180775344371796,
                0.15030597150325775,
                0.12577316164970398
            ],
            "min" : [
                -0.23180775344371796,
                -0.16297516226768494,
                -0.1722738891839981
            ],
            "type" : "VEC3"
        },
        {
            "bufferView" : 10,
            "componentType" : 5126,
            "count" : 216,
            "type" : "VEC2"
        },
        {
            "bufferView" : 11,
            "componentType" : 5126,
            "count" : 216,
            "type" : "VEC3"
        },
        {
            "bufferView" : 12,
            "componentType" : 5123,
            "count" : 1092,
            "type" : "SCALAR"
        },
        {
            "bufferView" : 13,
            "componentType" : 5126,
            "count" : 642,
            "max" : [
                0.6611249446868896,
                2.3862764835357666,
                1.2604384422302246
            ],
            "min" : [
                -0.6611249446868896,
                2.095421552658081,
                1.0707361698150635
            ],
            "type" : "VEC3"
        },
        {
            "bufferView" : 14,
            "componentType" : 5126,
            "count" : 642,
            "type" : "VEC2"
        },
        {
            "bufferView" : 15,
            "componentType" : 5126,
            "count" : 642,
            "type" : "VEC3"
        },
        {
            "bufferView" : 16,
            "componentType" : 5123,
            "count" : 3600,
            "type" : "SCALAR"
        },
        {
            "bufferView" : 17,
            "componentType" : 5126,
            "count" : 1487,
            "max" : [
                0.7059398889541626,
                2.5604453086853027,
                0.7059398889541626
            ],
            "min" : [
                -0.7059398889541626,
                1.8401540517807007,
                -0.7059398889541626
            ],
            "type" : "VEC3"
        },
        {
            "bufferView" : 18,
            "componentType" : 5126,
            "count" : 1487,
            "type" : "VEC2"
        },
        {
            "bufferView" : 19,
            "componentType" : 5126,
            "count" : 1487,
            "type" : "VEC3"
        },
        {
            "bufferView" : 20,
            "componentType" : 5123,
            "count" : 7824,
            "type" : "SCALAR"
        },
        {
            "bufferView" : 21,
            "componentType" : 5126,
            "count" : 1658,
            "max" : [
                1.3748537302017212,
                2.1137688159942627,
                1.3748537302017212
            ],
            "min" : [
                -1.3748537302017212,
                -1.3596961498260498,
                -1.3748537302017212
            ],
            "type" : "VEC3"
        },
        {
            "bufferView" : 22,
            "componentType" : 5126,
            "count" : 1658,
            "type" : "VEC2"
        },
        {
            "bufferView" : 23,
            "componentType" : 5126,
            "count" : 1658,
            "type" : "VEC3"
        },
        {
            "bufferView" : 24,
            "componentType" : 5126,
            "count" : 2408,
            "max" : [
                1.7029842138290405,
                1.946226716041565,
                0.8139830827713013
            ],
            "min" : [
                -1.7029842138290405,
                0.0027043786831200123,
                -0.3364943265914917
            ],
            "type" : "VEC3"
        },
        {
            "bufferView" : 25,
            "componentType" : 5126,
            "count" : 2408,
            "type" : "VEC2"
        },
        {
            "bufferView" : 26,
            "componentType" : 5126,
            "count" : 2408,
            "type" : "VEC3"
        },
        {
            "bufferView" : 27,
            "componentType" : 5126,
            "count" : 216,
            "max" : [
                0.23180775344371796,
                0.15030597150325775,
                0.12577316164970398
            ],
            "min" : [
                -0.23180775344371796,
                -0.16297516226768494,
                -0.1722738891839981
            ],
            "type" : "VEC3"
        },
        {
            "bufferView" : 28,
            "componentType" : 5126,
            "count" : 216,
            "type" : "VEC2"
        },
        {
            "bufferView" : 29,
            "componentType" : 5126,
            "count" : 216,
            "type" : "VEC3"
        },
        {
            "bufferView" : 30,
            "componentType" : 5126,
            "count" : 642,
            "max" : [
                0.6611249446868896,
                2.3862764835357666,
                1.2604384422302246
            ],
            "min" : [
                -0.6611249446868896,
                2.095421552658081,
                1.0707361698150635
            ],
            "type" : "VEC3"
        },
        {
            "bufferView" : 31,
            "componentType" : 5126,
            "count" : 642,
            "type" : "VEC2"
        },
        {
            "bufferView" : 32,
            "componentType" : 5126,
            "count" : 642,
            "type" : "VEC3"
        },
        {
            "bufferView" : 33,
            "componentType" : 5126,
            "count" : 1487,
            "max" : [
                0.7059398889541626,
                2.5604453086853027,
                0.7059398889541626
            ],
            "min" : [
                -0.7059398889541626,
                1.8401540517807007,
                -0.7059398889541626
            ],
            "type" : "VEC3"
        },
        {
            "bufferView" : 34,
            "componentType" : 5126,
            "count" : 1487,
            "type" : "VEC2"
        },
        {
            "bufferView" : 35,
            "componentType" : 5126,
            "count" : 1487,
            "type" : "VEC3"
        }
    ],
    "bufferViews" : [
        {
            "buffer" : 0,
            "byteLength" : 19896,
            "byteOffset" : 0,
            "target" : 34962
        },
        {
            "buffer" : 0,
            "byteLength" : 13264,
            "byteOffset" : 19896,
            "target" : 34962
        },
        {
            "buffer" : 0,
            "byteLength" : 19896,
            "byteOffset" : 33160,
            "target" : 34962
        },
        {
            "buffer" : 0,
            "byteLength" : 18432,
            "byteOffset" : 53056,
            "target" : 34963
        },
        {
            "buffer" : 0,
            "byteLength" : 143602,
            "byteOffset" : 71488
        },
        {
            "buffer" : 0,
            "byteLength" : 28896,
            "byteOffset" : 215092,
            "target" : 34962
        },
        {
            "buffer" : 0,
            "byteLength" : 19264,
            "byteOffset" : 243988,
            "target" : 34962
        },
        {
            "buffer" : 0,
            "byteLength" : 28896,
            "byteOffset" : 263252,
            "target" : 34962
        },
        {
            "buffer" : 0,
            "byteLength" : 26880,
            "byteOffset" : 292148,
            "target" : 34963
        },
        {
            "buffer" : 0,
            "byteLength" : 2592,
            "byteOffset" : 319028,
            "target" : 34962
        },
        {
            "buffer" : 0,
            "byteLength" : 1728,
            "byteOffset" : 321620,
            "target" : 34962
        },
        {
            "buffer" : 0,
            "byteLength" : 2592,
            "byteOffset" : 323348,
            "target" : 34962
        },
        {
            "buffer" : 0,
            "byteLength" : 2184,
            "byteOffset" : 325940,
            "target" : 34963
        },
        {
            "buffer" : 0,
            "byteLength" : 7704,
            "byteOffset" : 328124,
            "target" : 34962
        },
        {
            "buffer" : 0,
            "byteLength" : 5136,
            "byteOffset" : 335828,
            "target" : 34962
        },
        {
            "buffer" : 0,
            "byteLength" : 7704,
            "byteOffset" : 340964,
            "target" : 34962
        },
        {
            "buffer" : 0,
            "byteLength" : 7200,
            "byteOffset" : 348668,
            "target" : 34963
        },
        {
            "buffer" : 0,
            "byteLength" : 17844,
            "byteOffset" : 355868,
            "target" : 34962
        },
        {
            "buffer" : 0,
            "byteLength" : 11896,
            "byteOffset" : 373712,
            "target" : 34962
        },
        {
            "buffer" : 0,
            "byteLength" : 17844,
            "byteOffset" : 385608,
            "target" : 34962
        },
        {
            "buffer" : 0,
            "byteLength" : 15648,
            "byteOffset" : 403452,
            "target" : 34963
        },
        {
            "buffer" : 0,
            "byteLength" : 19896,
            "byteOffset" : 419100,
            "target" : 34962
        },
        {
            "buffer" : 0,
            "byteLength" : 13264,
            "byteOffset" : 438996,
            "target" : 34962
        },
        {
            "buffer" : 0,
            "byteLength" : 19896,
            "byteOffset" : 452260,
            "target" : 34962
        },
        {
            "buffer" : 0,
            "byteLength" : 28896,
            "byteOffset" : 472156,
            "target" : 34962
        },
        {
            "buffer" : 0,
            "byteLength" : 19264,
            "byteOffset" : 501052,
            "target" : 34962
        },
        {
            "buffer" : 0,
            "byteLength" : 28896,
            "byteOffset" : 520316,
            "target" : 34962
        },
        {
            "buffer" : 0,
            "byteLength" : 2592,
            "byteOffset" : 549212,
            "target" : 34962
        },
        {
            "buffer" : 0,
            "byteLength" : 1728,
            "byteOffset" : 551804,
            "target" : 34962
        },
        {
            "buffer" : 0,
            "byteLength" : 2592,
            "byteOffset" : 553532,
            "target" : 34962
        },
        {
            "buffer" : 0,
            "byteLength" : 7704,
            "byteOffset" : 556124,
            "target" : 34962
        },
        {
            "buffer" : 0,
            "byteLength" : 5136,
            "byteOffset" : 563828,
            "target" : 34962
        },
        {
            "buffer" : 0,
            "byteLength" : 7704,
            "byteOffset" : 568964,
            "target" : 34962
        },
        {
            "buffer" : 0,
            "byteLength" : 17844,
            "byteOffset" : 576668,
            "target" : 34962
        },
        {
            "buffer" : 0,
            "byteLength" : 11896,
            "byteOffset" : 594512,
            "target" : 34962
        },
        {
            "buffer" : 0,
            "byteLength" : 17844,
            "byteOffset" : 606408,
            "target" : 34962
        }
    ],
    "samplers" : [
        {
            "magFilter" : 9729,
            "minFilter" : 9987
        }
    ],
    "buffers" : [
        {
            "byteLength" : 624252,
            "uri" : "data:application/octet-stream;base64,"
        }
    ]
}
