{
    "asset" : {
        "generator" : "Khronos glTF Blender I/O v3.4.50",
        "version" : "2.0"
    },
    "scene" : 0,
    "scenes" : [
        {
            "name" : "Scene",
            "nodes" : [
                4
            ]
        }
    ],
    "nodes" : [
        {
            "mesh" : 0,
            "name" : "Object_2"
        },
        {
            "mesh" : 1,
            "name" : "Object_3"
        },
        {
            "mesh" : 2,
            "name" : "Object_4"
        },
        {
            "children" : [
                0,
                1,
                2
            ],
            "name" : "\ufffd\ufffd\ufffd\ufffd\ufffd\ufffd.obj.cleaner.materialmerger.gles"
        },
        {
            "children" : [
                3
            ],
            "name" : "Sketchfab_model",
            "rotation" : [
                -0.70710688829422,
                0,
                0,
                0.7071066498756409
            ],
            "scale" : [
                0.6261945366859436,
                0.6261945962905884,
                0.6261945962905884
            ]
        }
    ],
    "materials" : [
        {
            "doubleSided" : true,
            "name" : "Material.001",
            "pbrMetallicRoughness" : {
                "baseColorFactor" : [
                    0.800000011920929,
                    0.3432930111885071,
                    0.2658640146255493,
                    1
                ],
                "metallicFactor" : 0,
                "roughnessFactor" : 0.9383985996246338
            }
        },
        {
            "doubleSided" : true,
            "name" : "Material.002",
            "pbrMetallicRoughness" : {
                "baseColorFactor" : [
                    1,
                    0.8306779861450195,
                    0.8396959900856018,
                    1
                ],
                "metallicFactor" : 0,
                "roughnessFactor" : 0.9383985996246338
            }
        },
        {
            "doubleSided" : true,
            "name" : "Material.003",
            "pbrMetallicRoughness" : {
                "baseColorFactor" : [
                    0,
                    0,
                    0,
                    1
                ],
                "metallicFactor" : 0,
                "roughnessFactor" : 0.8011823296546936
            }
        }
    ],
    "meshes" : [
        {
            "name" : "Object_0.003",
            "primitives" : [
                {
                    "attributes" : {
                        "POSITION" : 0,
                        "TEXCOORD_0" : 1,
                        "NORMAL" : 2
                    },
                    "indices" : 3,
                    "material" : 0
                }
            ]
        },
        {
            "name" : "Object_1.003",
            "primitives" : [
                {
                    "attributes" : {
                        "POSITION" : 4,
                        "TEXCOORD_0" : 5,
                        "NORMAL" : 6
                    },
                    "indices" : 7,
                    "material" : 1
                }
            ]
        },
        {
            "name" : "Object_2.003",
            "primitives" : [
                {
                    "attributes" : {
                        "POSITION" : 8,
                        "TEXCOORD_0" : 9,
                        "NORMAL" : 10
                    },
                    "indices" : 11,
                    "material" : 2
                }
            ]
        }
    ],
    "accessors" : [
        {
            "bufferView" : 0,
            "componentType" : 5126,
            "count" : 9585,
            "max" : [
                1.267145037651062,
                0.8015919923782349,
                5.300154209136963
            ],
            "min" : [
                -1.267145037651062,
                -0.8015919923782349,
                0.023048000410199165
            ],
            "type" : "VEC3"
        },
        {
            "bufferView" : 1,
            "componentType" : 5126,
            "count" : 9585,
            "type" : "VEC2"
        },
        {
            "bufferView" : 2,
            "componentType" : 5126,
            "count" : 9585,
            "type" : "VEC3"
        },
        {
            "bufferView" : 3,
            "componentType" : 5123,
            "count" : 52608,
            "type" : "SCALAR"
        },
        {
            "bufferView" : 4,
            "componentType" : 5126,
            "count" : 5174,
            "max" : [
                0.899062991142273,
                -0.07825600355863571,
                5.050548076629639
            ],
            "min" : [
                -0.899062991142273,
                -0.8988639712333679,
                0.7247610092163086
            ],
            "type" : "VEC3"
        },
        {
            "bufferView" : 5,
            "componentType" : 5126,
            "count" : 5174,
            "type" : "VEC2"
        },
        {
            "bufferView" : 6,
            "componentType" : 5126,
            "count" : 5174,
            "type" : "VEC3"
        },
        {
            "bufferView" : 7,
            "componentType" : 5123,
            "count" : 30528,
            "type" : "SCALAR"
        },
        {
            "bufferView" : 8,
            "componentType" : 5126,
            "count" : 2571,
            "max" : [
                0.43650001287460327,
                -0.675449013710022,
                2.64827299118042
            ],
            "min" : [
                -0.43650001287460327,
                -0.93926602602005,
                2.075092077255249
            ],
            "type" : "VEC3"
        },
        {
            "bufferView" : 9,
            "componentType" : 5126,
            "count" : 2571,
            "type" : "VEC2"
        },
        {
            "bufferView" : 10,
            "componentType" : 5126,
            "count" : 2571,
            "type" : "VEC3"
        },
        {
            "bufferView" : 11,
            "componentType" : 5123,
            "count" : 13752,
            "type" : "SCALAR"
        }
    ],
    "bufferViews" : [
        {
            "buffer" : 0,
            "byteLength" : 115020,
            "byteOffset" : 0,
            "target" : 34962
        },
        {
            "buffer" : 0,
            "byteLength" : 76680,
            "byteOffset" : 115020,
            "target" : 34962
        },
        {
            "buffer" : 0,
            "byteLength" : 115020,
            "byteOffset" : 191700,
            "target" : 34962
        },
        {
            "buffer" : 0,
            "byteLength" : 105216,
            "byteOffset" : 306720,
            "target" : 34963
        },
        {
            "buffer" : 0,
            "byteLength" : 62088,
            "byteOffset" : 411936,
            "target" : 34962
        },
        {
            "buffer" : 0,
            "byteLength" : 41392,
            "byteOffset" : 474024,
            "target" : 34962
        },
        {
            "buffer" : 0,
            "byteLength" : 62088,
            "byteOffset" : 515416,
            "target" : 34962
        },
        {
            "buffer" : 0,
            "byteLength" : 61056,
            "byteOffset" : 577504,
            "target" : 34963
        },
        {
            "buffer" : 0,
            "byteLength" : 30852,
            "byteOffset" : 638560,
            "target" : 34962
        },
        {
            "buffer" : 0,
            "byteLength" : 20568,
            "byteOffset" : 669412,
            "target" : 34962
        },
        {
            "buffer" : 0,
            "byteLength" : 30852,
            "byteOffset" : 689980,
            "target" : 34962
        },
        {
            "buffer" : 0,
            "byteLength" : 27504,
            "byteOffset" : 720832,
            "target" : 34963
        }
    ],
    "buffers" : [
        {
            "byteLength" : 748336,
            "uri" : "data:application/octet-stream;base64,"
        }
    ]
}
